<svg xmlns="http://www.w3.org/2000/svg" xmlns:xlink="http://www.w3.org/1999/xlink" width="25.598" height="24.605" viewBox="0 0 25.598 24.605">
  <defs>
    <linearGradient id="linear-gradient" y1="0.5" x2="1" y2="0.5" gradientUnits="objectBoundingBox">
      <stop offset="0" stop-color="#fd3e40"/>
      <stop offset="0.273" stop-color="#e4324d"/>
      <stop offset="0.845" stop-color="#a71670"/>
      <stop offset="1" stop-color="#960e7a"/>
    </linearGradient>
  </defs>
  <path id="Tracé_11" data-name="Tracé 11" d="M859.529,492.135l-.8-2.114a6.751,6.751,0,0,0-3.658-3.73l-5.33-2.338a1.633,1.633,0,0,1-1.025-1.473v-1.387c2.376-1.6,4.084-5.718,4.084-8.1,0-3.015-2.718-5.458-6.07-5.458s-6.068,2.443-6.068,5.458c0,2.386,1.708,6.5,4.084,8.1v1.387a1.634,1.634,0,0,1-1.025,1.473l-5.333,2.338a6.754,6.754,0,0,0-3.656,3.73l-.8,2.114Z" transform="translate(-833.931 -467.53)" fill="url(#linear-gradient)"/>
</svg>
